# This file uses centimeters as units for non-parametric coordinates.

mtllib cannon.mtl
g default
v -2.019346 -0.368055 1.713329
v 4.019346 -0.368055 1.713329
v -2.019346 4.445572 1.713329
v 4.019346 4.445572 1.713329
v -2.019346 4.445572 -1.713329
v 4.019346 4.445572 -1.713329
v -2.019346 -0.368055 -1.713329
v 4.019346 -0.368055 -1.713329
v -0.322158 -0.247808 -1.088936
v -0.600946 0.645735 -1.629353
v -0.917974 1.661840 -1.441669
v -1.124897 2.325052 -0.613705
v -1.124897 2.325052 0.467129
v -0.917974 1.661840 1.295094
v -0.600946 0.645735 1.482777
v -0.322159 -0.247810 0.942364
v -0.212056 -0.600698 -0.073284
v 13.381732 4.027838 -1.088936
v 13.102942 4.921381 -1.629353
v 12.785916 5.937483 -1.441669
v 12.578990 6.600698 -0.613705
v 12.578990 6.600698 0.467129
v 12.785914 5.937483 1.295094
v 13.102942 4.921383 1.482777
v 13.381732 4.027838 0.942364
v 13.491833 3.674948 -0.073284
v -0.682668 0.907660 -0.073284
v 13.312018 4.251278 -0.884487
v 13.089348 4.964951 -1.316116
v 12.836140 5.776512 -1.166210
v 12.670868 6.306221 -0.504917
v 12.670868 6.306221 0.358341
v 12.836140 5.776514 1.019638
v 13.089346 4.964952 1.169540
v 13.312018 4.251278 0.737911
v 13.399954 3.969425 -0.073284
v 9.049496 2.921362 -0.884487
v 8.826828 3.635035 -1.316116
v 8.761558 3.844233 -0.073288
v 8.573620 4.446596 -1.166210
v 8.408348 4.976305 -0.504917
v 8.408348 4.976305 0.358341
v 8.573619 4.446596 1.019638
v 8.826827 3.635036 1.169540
v 9.049496 2.921362 0.737911
v 9.137435 2.639509 -0.073288
vt 0.181648 0.279578
vt 0.181648 0.005902
vt 0.399804 0.005902
vt 0.399804 0.279578
vt 0.442410 0.791434
vt 0.442410 0.517758
vt 0.597707 0.517758
vt 0.597707 0.791434
vt 0.211736 0.953221
vt 0.211736 0.679545
vt 0.429892 0.679545
vt 0.429892 0.953221
vt 0.006136 0.806003
vt 0.006136 0.532327
vt 0.161433 0.532327
vt 0.161433 0.806003
vt 0.838567 0.005902
vt 0.993864 0.005902
vt 0.993864 0.224057
vt 0.838567 0.224057
vt 0.738274 0.666906
vt 0.893572 0.666906
vt 0.893572 0.885062
vt 0.738274 0.885062
vt 0.297533 0.651493
vt 0.255437 0.664627
vt 0.054005 0.019019
vt 0.096101 0.005885
vt 0.207567 0.679563
vt 0.006136 0.033955
vt 0.736041 0.697804
vt 0.694238 0.708251
vt 0.694238 0.016349
vt 0.736041 0.005902
vt 0.639668 0.708251
vt 0.639668 0.016349
vt 0.597864 0.697804
vt 0.597864 0.005902
vt 0.391966 0.679562
vt 0.344096 0.664626
vt 0.545527 0.019019
vt 0.593397 0.033954
vt 0.302000 0.651492
vt 0.503431 0.005885
vt 0.835473 0.666907
vt 0.786873 0.661638
vt 0.786873 0.005900
vt 0.835473 0.011168
vt 0.738274 0.666907
vt 0.738274 0.011168
vt 0.269552 0.423926
vt 0.228105 0.398858
vt 0.281702 0.351747
vt 0.316684 0.415220
vt 0.347448 0.376815
vt 0.347448 0.326680
vt 0.316684 0.288275
vt 0.269552 0.279569
vt 0.228105 0.304636
vt 0.211736 0.351747
vt 0.445454 0.811453
vt 0.478558 0.791432
vt 0.488262 0.849081
vt 0.516203 0.798385
vt 0.540773 0.829059
vt 0.540773 0.869102
vt 0.516203 0.899776
vt 0.478558 0.906729
vt 0.445454 0.886708
vt 0.432381 0.849081
vt 0.614233 0.733310
vt 0.655680 0.708242
vt 0.657701 0.722772
vt 0.624597 0.742793
vt 0.702812 0.716948
vt 0.695345 0.729725
vt 0.733575 0.755353
vt 0.719916 0.760399
vt 0.733575 0.805488
vt 0.719916 0.800442
vt 0.702812 0.843893
vt 0.695345 0.831116
vt 0.655680 0.852599
vt 0.657701 0.838070
vt 0.614233 0.827532
vt 0.624597 0.818048
vt 0.597864 0.780421
vt 0.611523 0.780421
vt 0.525123 0.268853
vt 0.558745 0.279344
vt 0.496091 0.480156
vt 0.462468 0.469666
vt 0.596978 0.291272
vt 0.534324 0.492085
vt 0.838567 0.438910
vt 0.871955 0.447254
vt 0.871955 0.662467
vt 0.838567 0.654122
vt 0.915541 0.447254
vt 0.915541 0.662467
vt 0.948929 0.438910
vt 0.948929 0.654122
vt 0.838567 0.246463
vt 0.876801 0.234534
vt 0.939455 0.435347
vt 0.901221 0.447276
vt 0.910423 0.224044
vt 0.973077 0.424856
vt 0.006136 0.291497
vt 0.044952 0.287289
vt 0.044952 0.491253
vt 0.006136 0.495461
vt 0.083768 0.291497
vt 0.083768 0.495461
vn 0.000000 0.000000 1.000000
vn 0.000000 0.000000 1.000000
vn 0.000000 0.000000 1.000000
vn 0.000000 0.000000 1.000000
vn 0.000000 1.000000 0.000000
vn 0.000000 1.000000 0.000000
vn 0.000000 1.000000 0.000000
vn 0.000000 1.000000 0.000000
vn 0.000000 0.000000 -1.000000
vn 0.000000 0.000000 -1.000000
vn 0.000000 0.000000 -1.000000
vn 0.000000 0.000000 -1.000000
vn 0.000000 -1.000000 0.000000
vn 0.000000 -1.000000 0.000000
vn 0.000000 -1.000000 0.000000
vn 0.000000 -1.000000 0.000000
vn 1.000000 0.000000 0.000000
vn 1.000000 0.000000 0.000000
vn 1.000000 0.000000 0.000000
vn 1.000000 0.000000 0.000000
vn -1.000000 0.000000 0.000000
vn -1.000000 0.000000 0.000000
vn -1.000000 0.000000 0.000000
vn -1.000000 0.000000 0.000000
vn 0.148922 -0.477309 -0.866024
vn 0.148922 -0.477309 -0.866024
vn 0.148922 -0.477309 -0.866024
vn 0.148922 -0.477309 -0.866024
vn -0.051719 0.165766 -0.984808
vn -0.051719 0.165766 -0.984808
vn -0.051719 0.165766 -0.984808
vn -0.051719 0.165766 -0.984808
vn -0.228161 0.731278 -0.642787
vn -0.228161 0.731278 -0.642787
vn -0.228161 0.731278 -0.642787
vn -0.228161 0.731278 -0.642787
vn -0.297842 0.954615 0.000000
vn -0.297842 0.954615 0.000000
vn -0.297842 0.954615 0.000000
vn -0.297842 0.954615 0.000000
vn -0.228160 0.731278 0.642787
vn -0.228160 0.731278 0.642787
vn -0.228160 0.731278 0.642787
vn -0.228160 0.731278 0.642787
vn -0.051720 0.165766 0.984808
vn -0.051720 0.165766 0.984808
vn -0.051720 0.165766 0.984808
vn -0.051720 0.165766 0.984808
vn 0.148920 -0.477305 0.866027
vn 0.148920 -0.477305 0.866027
vn 0.148920 -0.477305 0.866027
vn 0.148920 -0.477305 0.866027
vn 0.279880 -0.897045 0.342020
vn 0.279880 -0.897045 0.342020
vn 0.279880 -0.897045 0.342020
vn 0.279880 -0.897045 0.342020
vn 0.279880 -0.897045 -0.342021
vn 0.279880 -0.897045 -0.342021
vn 0.279880 -0.897044 -0.342021
vn 0.279880 -0.897045 -0.342021
vn -0.954615 -0.297842 0.000000
vn -0.954615 -0.297842 -0.000001
vn -0.954615 -0.297842 0.000000
vn -0.954615 -0.297842 0.000001
vn -0.954615 -0.297842 0.000000
vn -0.954615 -0.297842 0.000000
vn -0.954615 -0.297842 0.000001
vn -0.954615 -0.297842 0.000001
vn -0.954615 -0.297842 0.000000
vn -0.954615 -0.297842 0.000000
vn -0.954615 -0.297842 0.000001
vn -0.954615 -0.297842 0.000000
vn -0.954615 -0.297842 0.000000
vn -0.954615 -0.297842 0.000000
vn -0.954615 -0.297842 0.000000
vn -0.954615 -0.297842 0.000000
vn -0.954615 -0.297842 0.000000
vn -0.954615 -0.297842 0.000000
vn -0.954615 -0.297842 0.000000
vn -0.954615 -0.297842 0.000000
vn -0.954615 -0.297842 0.000000
vn -0.954615 -0.297842 -0.000001
vn -0.954615 -0.297842 0.000000
vn -0.954615 -0.297842 0.000000
vn -0.954615 -0.297842 -0.000001
vn -0.954615 -0.297842 -0.000001
vn -0.954615 -0.297842 0.000000
vn 0.954615 0.297842 0.000000
vn 0.954615 0.297842 0.000001
vn 0.954615 0.297843 0.000000
vn 0.954615 0.297842 0.000001
vn 0.954615 0.297844 0.000001
vn 0.954615 0.297843 0.000000
vn 0.954615 0.297844 0.000001
vn 0.954615 0.297844 0.000001
vn 0.954615 0.297843 0.000000
vn 0.954615 0.297844 0.000001
vn 0.954615 0.297843 -0.000001
vn 0.954615 0.297843 0.000000
vn 0.954615 0.297843 -0.000001
vn 0.954616 0.297841 -0.000001
vn 0.954615 0.297843 0.000000
vn 0.954616 0.297841 -0.000001
vn 0.954615 0.297843 0.000000
vn 0.954615 0.297843 0.000000
vn 0.954615 0.297843 0.000000
vn 0.954614 0.297845 0.000000
vn 0.954615 0.297843 0.000000
vn 0.954614 0.297845 0.000000
vn 0.954615 0.297842 0.000000
vn 0.954615 0.297843 0.000000
vn 0.954615 0.297842 0.000000
vn 0.954615 0.297842 0.000000
vn 0.954615 0.297843 0.000000
vn 0.954614 0.297846 -0.000001
vn 0.954614 0.297846 -0.000001
vn 0.954614 0.297846 -0.000001
vn 0.954614 0.297846 -0.000001
vn 0.954616 0.297841 -0.000002
vn 0.954616 0.297841 -0.000002
vn 0.954616 0.297841 -0.000002
vn 0.954616 0.297841 -0.000002
vn 0.954613 0.297848 -0.000001
vn 0.954613 0.297848 -0.000001
vn 0.954613 0.297848 -0.000001
vn 0.954613 0.297848 -0.000001
vn 0.954613 0.297850 0.000000
vn 0.954613 0.297850 0.000000
vn 0.954613 0.297850 0.000000
vn 0.954613 0.297850 0.000000
vn 0.954615 0.297844 0.000004
vn 0.954615 0.297844 0.000004
vn 0.954615 0.297844 0.000004
vn 0.954615 0.297844 0.000004
vn 0.954615 0.297844 0.000001
vn 0.954615 0.297844 0.000001
vn 0.954615 0.297844 0.000001
vn 0.954615 0.297844 0.000001
vn 0.954614 0.297847 -0.000003
vn 0.954614 0.297847 -0.000003
vn 0.954614 0.297847 -0.000003
vn 0.954614 0.297847 -0.000003
vn 0.954617 0.297837 -0.000001
vn 0.954617 0.297837 -0.000001
vn 0.954617 0.297837 -0.000001
vn 0.954617 0.297837 -0.000001
vn 0.954615 0.297842 0.000002
vn 0.954615 0.297842 0.000002
vn 0.954615 0.297842 0.000002
vn 0.954615 0.297842 0.000002
vn -0.148921 0.477308 0.866025
vn -0.148921 0.477308 0.866025
vn -0.148921 0.477308 0.866025
vn -0.148921 0.477308 0.866025
vn 0.051721 -0.165770 0.984807
vn 0.051721 -0.165770 0.984807
vn 0.051721 -0.165770 0.984807
vn 0.051721 -0.165770 0.984807
vn 0.228159 -0.731275 0.642791
vn 0.228159 -0.731275 0.642791
vn 0.228159 -0.731275 0.642791
vn 0.228159 -0.731275 0.642791
vn 0.297842 -0.954615 0.000000
vn 0.297842 -0.954615 0.000000
vn 0.297842 -0.954615 0.000000
vn 0.297842 -0.954615 0.000000
vn 0.228161 -0.731278 -0.642787
vn 0.228161 -0.731278 -0.642787
vn 0.228161 -0.731278 -0.642787
vn 0.228161 -0.731278 -0.642787
vn 0.051719 -0.165766 -0.984808
vn 0.051719 -0.165766 -0.984808
vn 0.051719 -0.165766 -0.984808
vn 0.051719 -0.165766 -0.984808
vn -0.148921 0.477307 -0.866026
vn -0.148921 0.477307 -0.866026
vn -0.148921 0.477307 -0.866026
vn -0.148921 0.477307 -0.866026
vn -0.279880 0.897045 -0.342019
vn -0.279880 0.897045 -0.342019
vn -0.279880 0.897045 -0.342019
vn -0.279880 0.897045 -0.342019
vn -0.279880 0.897046 0.342018
vn -0.279880 0.897046 0.342018
vn -0.279880 0.897046 0.342018
vn -0.279880 0.897046 0.342018
s 1
g cannon:polySurface2
usemtl initialShadingGroup
f 1/1/1 2/2/2 3/4/3
f 3/4/3 2/2/2 4/3/4
s 2
f 3/5/5 4/6/6 5/8/7
f 5/8/7 4/6/6 6/7/8
s 3
f 5/9/9 6/10/10 7/12/11
f 7/12/11 6/10/10 8/11/12
s 4
f 7/13/13 8/14/14 1/16/15
f 1/16/15 8/14/14 2/15/16
s 5
f 2/17/17 8/18/18 4/20/19
f 4/20/19 8/18/18 6/19/20
s 6
f 7/21/21 1/22/22 5/24/23
f 5/24/23 1/22/22 3/23/24
s 7
f 9/25/25 10/26/26 18/28/27
f 18/28/27 10/26/26 19/27/28
s 8
f 10/26/29 11/29/30 19/27/31
f 19/27/31 11/29/30 20/30/32
s 9
f 11/31/33 12/32/34 20/34/35
f 20/34/35 12/32/34 21/33/36
s 10
f 12/32/37 13/35/38 21/33/39
f 21/33/39 13/35/38 22/36/40
s 11
f 13/35/41 14/37/42 22/36/43
f 22/36/43 14/37/42 23/38/44
s 12
f 14/39/45 15/40/46 23/42/47
f 23/42/47 15/40/46 24/41/48
s 13
f 15/40/49 16/43/50 24/41/51
f 24/41/51 16/43/50 25/44/52
s 14
f 16/45/53 17/46/54 25/48/55
f 25/48/55 17/46/54 26/47/56
s 15
f 17/46/57 9/49/58 26/47/59
f 26/47/59 9/49/58 18/50/60
s off
f 10/51/61 9/52/62 27/53/63
f 11/54/64 10/51/65 27/53/66
f 12/55/67 11/54/68 27/53/69
f 13/56/70 12/55/71 27/53/72
f 14/57/73 13/56/74 27/53/75
f 15/58/76 14/57/77 27/53/78
f 16/59/79 15/58/80 27/53/81
f 17/60/82 16/59/83 27/53/84
f 9/52/85 17/60/86 27/53/87
f 37/61/88 38/62/89 39/63/90
f 38/62/91 40/64/92 39/63/93
f 40/64/94 41/65/95 39/63/96
f 41/65/97 42/66/98 39/63/99
f 42/66/100 43/67/101 39/63/102
f 43/67/103 44/68/104 39/63/105
f 44/68/106 45/69/107 39/63/108
f 45/69/109 46/70/110 39/63/111
f 46/70/112 37/61/113 39/63/114
s 16
f 19/72/115 29/73/116 18/71/117
f 18/71/117 29/73/116 28/74/118
s 17
f 20/75/119 30/76/120 19/72/121
f 19/72/121 30/76/120 29/73/122
s 18
f 21/77/123 31/78/124 20/75/125
f 20/75/125 31/78/124 30/76/126
s 19
f 21/77/127 22/79/128 31/78/129
f 31/78/129 22/79/128 32/80/130
s 20
f 22/79/131 23/81/132 32/80/133
f 32/80/133 23/81/132 33/82/134
s 21
f 23/81/135 24/83/136 33/82/137
f 33/82/137 24/83/136 34/84/138
s 22
f 24/83/139 25/85/140 34/84/141
f 34/84/141 25/85/140 35/86/142
s 23
f 25/85/143 26/87/144 35/86/145
f 35/86/145 26/87/144 36/88/146
s 24
f 18/71/147 28/74/148 26/87/149
f 26/87/149 28/74/148 36/88/150
s 25
f 28/89/151 29/90/152 37/92/153
f 37/92/153 29/90/152 38/91/154
s 26
f 29/90/155 30/93/156 38/91/157
f 38/91/157 30/93/156 40/94/158
s 27
f 30/95/159 31/96/160 40/98/161
f 40/98/161 31/96/160 41/97/162
s 28
f 31/96/163 32/99/164 41/97/165
f 41/97/165 32/99/164 42/100/166
s 29
f 32/99/167 33/101/168 42/100/169
f 42/100/169 33/101/168 43/102/170
s 30
f 33/103/171 34/104/172 43/106/173
f 43/106/173 34/104/172 44/105/174
s 31
f 34/104/175 35/107/176 44/105/177
f 44/105/177 35/107/176 45/108/178
s 32
f 35/109/179 36/110/180 45/112/181
f 45/112/181 36/110/180 46/111/182
s 33
f 36/110/183 28/113/184 46/111/185
f 46/111/185 28/113/184 37/114/186
