# This file uses centimeters as units for non-parametric coordinates.

mtllib cannon.mtl
g default
v 6.477697 10.410083 8.203042
v 6.198909 11.303628 7.662625
v 5.881882 12.319732 7.850308
v 5.674958 12.982945 8.678273
v 5.674958 12.982945 9.759105
v 5.881882 12.319732 10.587070
v 6.198909 11.303628 10.774754
v 6.477696 10.410082 10.234339
v 6.587800 10.057194 9.218691
v 20.181587 14.685729 8.203042
v 19.902798 15.579274 7.662625
v 19.585772 16.595375 7.850308
v 19.378845 17.258591 8.678273
v 19.378845 17.258591 9.759105
v 19.585770 16.595375 10.587070
v 19.902798 15.579275 10.774754
v 20.181587 14.685729 10.234339
v 20.291689 14.332840 9.218691
v 6.117188 11.565553 9.218691
v 20.111874 14.909170 8.407491
v 19.889204 15.622843 7.975861
v 19.635996 16.434404 8.125765
v 19.470724 16.964113 8.787059
v 19.470724 16.964113 9.650319
v 19.635996 16.434406 10.311615
v 19.889202 15.622845 10.461518
v 20.111874 14.909170 10.029888
v 20.199810 14.627317 9.218691
v 15.849352 13.579253 8.407491
v 15.626684 14.292927 7.975861
v 15.561414 14.502126 9.218690
v 15.373476 15.104488 8.125765
v 15.208203 15.634197 8.787059
v 15.208203 15.634197 9.650319
v 15.373475 15.104489 10.311615
v 15.626682 14.292929 10.461518
v 15.849352 13.579253 10.029888
v 15.937291 13.297400 9.218690
v 4.780510 10.289837 11.005306
v 10.819201 10.289837 11.005306
v 4.780510 15.103464 11.005306
v 10.819201 15.103464 11.005306
v 4.780510 15.103464 7.578648
v 10.819201 15.103464 7.578648
v 4.780510 10.289837 7.578648
v 10.819201 10.289837 7.578648
vt 0.269552 0.423926
vt 0.228105 0.398858
vt 0.281702 0.351747
vt 0.211736 0.351747
vt 0.316684 0.415220
vt 0.228105 0.304636
vt 0.347448 0.376815
vt 0.269552 0.279569
vt 0.347448 0.326680
vt 0.316684 0.288275
vt 0.445454 0.811453
vt 0.478558 0.791432
vt 0.488262 0.849081
vt 0.516203 0.798385
vt 0.432381 0.849081
vt 0.540773 0.829059
vt 0.445454 0.886708
vt 0.540773 0.869102
vt 0.478558 0.906729
vt 0.516203 0.899776
vt 0.614233 0.733310
vt 0.655680 0.708242
vt 0.657701 0.722772
vt 0.624597 0.742793
vt 0.702812 0.716948
vt 0.695345 0.729725
vt 0.597864 0.780421
vt 0.611523 0.780421
vt 0.733575 0.755353
vt 0.719916 0.760399
vt 0.614233 0.827532
vt 0.624597 0.818048
vt 0.733575 0.805488
vt 0.719916 0.800442
vt 0.655680 0.852599
vt 0.657701 0.838070
vt 0.702812 0.843893
vt 0.695345 0.831116
vt 0.838567 0.005902
vt 0.993864 0.005902
vt 0.993864 0.224057
vt 0.838567 0.224057
vt 0.738274 0.666906
vt 0.893572 0.666906
vt 0.893572 0.885062
vt 0.738274 0.885062
vt 0.694238 0.708251
vt 0.639668 0.708251
vt 0.639668 0.016349
vt 0.694238 0.016349
vt 0.597864 0.697804
vt 0.597864 0.005902
vt 0.736041 0.697804
vt 0.736041 0.005902
vt 0.835473 0.666907
vt 0.786873 0.661638
vt 0.786873 0.005900
vt 0.835473 0.011168
vt 0.738274 0.666907
vt 0.738274 0.011168
vt 0.871955 0.447254
vt 0.915541 0.447254
vt 0.915541 0.662467
vt 0.871955 0.662467
vt 0.948929 0.438910
vt 0.948929 0.654122
vt 0.838567 0.438910
vt 0.838567 0.654122
vt 0.006136 0.291497
vt 0.044952 0.287289
vt 0.044952 0.491253
vt 0.006136 0.495461
vt 0.083768 0.291497
vt 0.083768 0.495461
vt 0.442410 0.791434
vt 0.442410 0.517758
vt 0.597707 0.517758
vt 0.597707 0.791434
vt 0.006136 0.806003
vt 0.006136 0.532327
vt 0.161433 0.532327
vt 0.161433 0.806003
vt 0.297533 0.651493
vt 0.255437 0.664627
vt 0.054005 0.019019
vt 0.096101 0.005885
vt 0.207567 0.679563
vt 0.006136 0.033955
vt 0.391966 0.679562
vt 0.344096 0.664626
vt 0.545527 0.019019
vt 0.593397 0.033954
vt 0.302000 0.651492
vt 0.503431 0.005885
vt 0.525123 0.268853
vt 0.558745 0.279344
vt 0.496091 0.480156
vt 0.462468 0.469666
vt 0.596978 0.291272
vt 0.534324 0.492085
vt 0.838567 0.246463
vt 0.876801 0.234534
vt 0.939455 0.435347
vt 0.901221 0.447276
vt 0.910423 0.224044
vt 0.973077 0.424856
vt 0.181648 0.279578
vt 0.181648 0.005902
vt 0.399804 0.005902
vt 0.399804 0.279578
vt 0.211736 0.953221
vt 0.211736 0.679545
vt 0.429892 0.679545
vt 0.429892 0.953221
vn 0.148922 -0.477309 -0.866025
vn 0.148922 -0.477309 -0.866025
vn 0.148922 -0.477309 -0.866025
vn 0.148922 -0.477309 -0.866025
vn -0.051719 0.165766 -0.984808
vn -0.051719 0.165766 -0.984808
vn -0.051719 0.165766 -0.984808
vn -0.051719 0.165766 -0.984808
vn -0.228160 0.731278 -0.642788
vn -0.228160 0.731278 -0.642788
vn -0.228160 0.731278 -0.642788
vn -0.228160 0.731278 -0.642788
vn -0.297842 0.954615 0.000000
vn -0.297842 0.954615 0.000000
vn -0.297842 0.954615 0.000000
vn -0.297842 0.954615 0.000000
vn -0.228160 0.731278 0.642787
vn -0.228160 0.731278 0.642787
vn -0.228160 0.731278 0.642787
vn -0.228160 0.731278 0.642787
vn -0.051720 0.165766 0.984808
vn -0.051720 0.165766 0.984808
vn -0.051720 0.165766 0.984808
vn -0.051720 0.165766 0.984808
vn 0.148921 -0.477307 0.866026
vn 0.148921 -0.477307 0.866026
vn 0.148921 -0.477307 0.866026
vn 0.148921 -0.477307 0.866026
vn 0.279880 -0.897045 0.342020
vn 0.279880 -0.897045 0.342020
vn 0.279880 -0.897045 0.342020
vn 0.279880 -0.897045 0.342020
vn 0.279880 -0.897045 -0.342021
vn 0.279880 -0.897045 -0.342021
vn 0.279880 -0.897045 -0.342021
vn 0.279880 -0.897045 -0.342021
vn -0.954615 -0.297842 -0.000000
vn -0.954615 -0.297842 -0.000000
vn -0.954615 -0.297842 -0.000000
vn -0.954615 -0.297842 0.000000
vn -0.954615 -0.297842 0.000000
vn -0.954615 -0.297842 -0.000000
vn -0.954615 -0.297842 -0.000000
vn -0.954615 -0.297842 0.000000
vn -0.954615 -0.297842 -0.000000
vn -0.954615 -0.297843 -0.000001
vn 0.954615 0.297841 0.000000
vn 0.954615 0.297842 0.000001
vn 0.954615 0.297843 0.000000
vn 0.954615 0.297843 0.000001
vn 0.954615 0.297844 0.000001
vn 0.954614 0.297845 -0.000000
vn 0.954615 0.297841 -0.000000
vn 0.954615 0.297842 0.000001
vn 0.954614 0.297844 0.000001
vn 0.954615 0.297842 -0.000000
vn 0.954614 0.297846 -0.000001
vn 0.954614 0.297846 -0.000001
vn 0.954614 0.297846 -0.000001
vn 0.954614 0.297846 -0.000001
vn 0.954616 0.297841 -0.000002
vn 0.954616 0.297841 -0.000002
vn 0.954616 0.297841 -0.000002
vn 0.954616 0.297841 -0.000002
vn 0.954614 0.297845 -0.000000
vn 0.954614 0.297845 -0.000000
vn 0.954614 0.297845 -0.000000
vn 0.954614 0.297845 -0.000000
vn 0.954614 0.297847 0.000000
vn 0.954614 0.297847 0.000000
vn 0.954614 0.297847 0.000000
vn 0.954614 0.297847 0.000000
vn 0.954616 0.297840 0.000006
vn 0.954616 0.297840 0.000006
vn 0.954616 0.297840 0.000006
vn 0.954616 0.297840 0.000006
vn 0.954615 0.297843 0.000001
vn 0.954615 0.297843 0.000001
vn 0.954615 0.297843 0.000001
vn 0.954615 0.297843 0.000001
vn 0.954613 0.297848 -0.000001
vn 0.954613 0.297848 -0.000001
vn 0.954613 0.297848 -0.000001
vn 0.954613 0.297848 -0.000001
vn 0.954617 0.297835 -0.000002
vn 0.954617 0.297835 -0.000002
vn 0.954618 0.297835 -0.000002
vn 0.954617 0.297835 -0.000002
vn 0.954617 0.297836 0.000002
vn 0.954617 0.297836 0.000002
vn 0.954617 0.297836 0.000002
vn 0.954617 0.297836 0.000002
vn -0.148921 0.477308 0.866025
vn -0.148921 0.477308 0.866025
vn -0.148921 0.477308 0.866025
vn -0.148921 0.477308 0.866025
vn 0.051720 -0.165768 0.984808
vn 0.051720 -0.165768 0.984808
vn 0.051720 -0.165768 0.984808
vn 0.051720 -0.165768 0.984808
vn 0.228160 -0.731275 0.642791
vn 0.228160 -0.731275 0.642791
vn 0.228160 -0.731275 0.642791
vn 0.228160 -0.731275 0.642791
vn 0.297842 -0.954615 0.000000
vn 0.297842 -0.954615 0.000000
vn 0.297842 -0.954615 0.000000
vn 0.297842 -0.954615 0.000000
vn 0.228160 -0.731277 -0.642788
vn 0.228160 -0.731277 -0.642788
vn 0.228160 -0.731277 -0.642788
vn 0.228160 -0.731277 -0.642789
vn 0.051720 -0.165767 -0.984808
vn 0.051720 -0.165767 -0.984808
vn 0.051720 -0.165767 -0.984808
vn 0.051720 -0.165767 -0.984808
vn -0.148921 0.477307 -0.866026
vn -0.148921 0.477307 -0.866026
vn -0.148921 0.477307 -0.866026
vn -0.148921 0.477307 -0.866026
vn -0.279880 0.897044 -0.342021
vn -0.279880 0.897044 -0.342021
vn -0.279880 0.897044 -0.342021
vn -0.279880 0.897044 -0.342021
vn -0.279880 0.897045 0.342021
vn -0.279880 0.897045 0.342021
vn -0.279880 0.897045 0.342021
vn -0.279880 0.897045 0.342021
vn 0.000000 0.000000 1.000000
vn 0.000000 0.000000 1.000000
vn 0.000000 0.000000 1.000000
vn 0.000000 0.000000 1.000000
vn 0.000000 1.000000 0.000000
vn 0.000000 1.000000 0.000000
vn 0.000000 1.000000 0.000000
vn 0.000000 1.000000 0.000000
vn 0.000000 0.000000 -1.000000
vn 0.000000 0.000000 -1.000000
vn 0.000000 0.000000 -1.000000
vn 0.000000 0.000000 -1.000000
vn 0.000000 -1.000000 0.000000
vn 0.000000 -1.000000 0.000000
vn 0.000000 -1.000000 0.000000
vn 0.000000 -1.000000 0.000000
vn 1.000000 0.000000 0.000000
vn 1.000000 0.000000 0.000000
vn 1.000000 0.000000 0.000000
vn 1.000000 0.000000 0.000000
vn -1.000000 0.000000 0.000000
vn -1.000000 0.000000 0.000000
vn -1.000000 0.000000 0.000000
vn -1.000000 0.000000 0.000000
s off
g pCylinder3
usemtl lambert5SG
f 1/83/1 2/84/2 11/85/3 10/86/4
f 2/84/5 3/87/6 12/88/7 11/85/8
f 3/53/9 4/47/10 13/50/11 12/54/12
f 4/47/13 5/48/14 14/49/15 13/50/16
f 5/48/17 6/51/18 15/52/19 14/49/20
f 6/89/21 7/90/22 16/91/23 15/92/24
f 7/90/25 8/93/26 17/94/27 16/91/28
f 8/55/29 9/56/30 18/57/31 17/58/32
f 9/56/33 1/59/34 10/60/35 18/57/36
s 1
f 2/1/37 1/2/38 19/3/39
f 3/5/40 2/1/37 19/3/39
f 4/7/41 3/5/40 19/3/39
f 5/9/42 4/7/41 19/3/39
f 6/10/43 5/9/42 19/3/39
f 7/8/44 6/10/43 19/3/39
f 8/6/45 7/8/44 19/3/39
f 9/4/46 8/6/45 19/3/39
f 1/2/38 9/4/46 19/3/39
s 2
f 29/11/47 30/12/48 31/13/49
f 30/12/48 32/14/50 31/13/49
f 32/14/50 33/16/51 31/13/49
f 33/16/51 34/18/52 31/13/49
f 34/18/52 35/20/53 31/13/49
f 35/20/53 36/19/54 31/13/49
f 36/19/54 37/17/55 31/13/49
f 37/17/55 38/15/56 31/13/49
f 38/15/56 29/11/47 31/13/49
s off
f 10/21/57 11/22/58 21/23/59 20/24/60
f 11/22/61 12/25/62 22/26/63 21/23/64
f 12/25/65 13/29/66 23/30/67 22/26/68
f 13/29/69 14/33/70 24/34/71 23/30/72
f 14/33/73 15/37/74 25/38/75 24/34/76
f 15/37/77 16/35/78 26/36/79 25/38/80
f 16/35/81 17/31/82 27/32/83 26/36/84
f 17/31/85 18/27/86 28/28/87 27/32/88
f 18/27/89 10/21/90 20/24/91 28/28/92
f 20/95/93 21/96/94 30/97/95 29/98/96
f 21/96/97 22/99/98 32/100/99 30/97/100
f 22/67/101 23/61/102 33/64/103 32/68/104
f 23/61/105 24/62/106 34/63/107 33/64/108
f 24/62/109 25/65/110 35/66/111 34/63/112
f 25/101/113 26/102/114 36/103/115 35/104/116
f 26/102/117 27/105/118 37/106/119 36/103/120
f 27/69/121 28/70/122 38/71/123 37/72/124
f 28/70/125 20/73/126 29/74/127 38/71/128
usemtl initialShadingGroup
f 39/107/129 40/108/130 42/109/131 41/110/132
f 41/75/133 42/76/134 44/77/135 43/78/136
f 43/111/137 44/112/138 46/113/139 45/114/140
f 45/79/141 46/80/142 40/81/143 39/82/144
f 40/39/145 46/40/146 44/41/147 42/42/148
f 45/43/149 39/44/150 41/45/151 43/46/152
